<svg fill="none" height="32" width="178" xmlns="http://www.w3.org/2000/svg"><g fill="#fff"><path d="M29.45 19.97c-.34 0-3.83-4.8-5.07-5.47-1.23-.65-3.12-.78-4.7-1.97l-2.15-1.38a91.5 91.5 0 0 0-4.12-2.6l-.14-.08h-.01a2.23 2.23 0 0 0-.07-.05C10.75 6.97 8.27 5.58 5.85 4.1c-1.06-.65-2.11-1.35-3.16-2.04C1.77 1.45.86.78.01 0c-.12 2.28.76 4.73 2.05 6.66a15.25 15.25 0 0 0 5.36 4.76c2.53 1.44 7.3 2.18 10.01 4.9-2.92-.85-5.86-1.55-8.78-2.38-.95-.27-1.9-.58-2.86-.87-.84-.26-1.67-.56-2.48-.95.28 1.46 1.45 2.82 2.73 3.93 1.11.97 3.5 1.72 5.02 2.16 2.25.64 6.6.96 8.65 2.43-2.12-.17-4.24-.24-6.36-.4L11.06 20c-.66-.07-1.34-.17-2-.34.34 1.09 1.34 1.98 2.43 2.62 1.26.74 2.69.95 4.15 1.02 1.8.09 5.28-1.1 7.78.63-1.93.64-3.86 1.43-5.7 2.08-.56.19-1.11.37-1.67.54-.49.16-.98.3-1.47.38.4.67 1.24 1 2.1 1.11 1.02.14 2.05-.18 3.16-.39 2.24-.4 6.1-2.8 8.02-2.28l-.01.05c-1.66 1.23-2.87 2.8-4.3 4.13l-.93.84a6.3 6.3 0 0 1-.92.67c.86.26 1.82.18 2.63-.03a4.83 4.83 0 0 0 2.3-1.21c.55-.57.85-1.23 1.15-1.89A9.49 9.49 0 0 0 29.45 32zM32.17 26.88v-.04c.32-.09.71-.07 1.15 0v-1.77h-2.53v2.52h2.24c-.27-.24-.55-.48-.86-.7zM33.32 21.37h-2.53v2.52h2.53zM33.32 17.65h-.52c-.97 1.16-1.85 2.28-2 2.28v.25h2.52zM37.2 26.6v-2.52h-2.52v1.78c.7.14 1.48.42 2.28.74zM36.11 28.86v2.24h2.2c-.75-.73-1.44-1.5-2.2-2.24zM34.68 20.18h2.53v-2.53h-2.53zM38.53 26.6h2.52v-1.07c-.84-.32-1.68-.63-2.52-.91zM38.53 21.37v2.52h1.25c.41-.12.84-.18 1.27-.2v-2.32zM38.53 16.35h2.52v-2.52h-2.52zM38.53 20.18h2.52v-2.53h-2.52zM42.98 21.63c.13-.1.28-.18.43-.26h-1v2.3c.88-.04 1.75.07 2.53.16V21.5l-1.96.13zM44.94 12.45V9.93h-.34a124.06 124.06 0 0 0-2.19 1.4v1.12zM42.41 16.35h2.53v-2.52H42.4zM42.48 28.12c.19 0 .38 0 .56-.02.76-.1 1.49-.39 1.83-.97a9.08 9.08 0 0 1-1.27-.32l-.65-.21h-.47zM46.25 12.45h2.53V9.93h-2.53zM48.78 16.82h-2.53v1.94c.8-.23 1.68-.42 2.53-.58zM50.1 16.61h2.53V14.1h-1.48l-1.04.28zM53.85 7.12v2.52h.97c.57-.33 1.08-.67 1.55-1.03v-1.5zM55.98 14.09c.44-.58.77-1.2.9-1.85-.56.26-1.13.48-1.7.67v1.18zM59.81 1.93c.13-.64.2-1.3.16-1.93-.6.56-1.25 1.05-1.9 1.5v.43zM68.42.25H71v14.69h-2.57zM72.89 4.3h2.22v1.56l.04.04a3.81 3.81 0 0 1 3.31-1.89c2.3 0 3.77 1.24 3.77 3.62v7.3h-2.35V8.26c-.04-1.67-.7-2.39-2.07-2.39-1.57 0-2.58 1.24-2.58 2.8v6.28H72.9zM88.55 13.37c2.1 0 2.98-1.9 2.98-3.76 0-2.35-1.13-3.75-2.94-3.75-2.2 0-2.99 1.96-2.99 3.87 0 1.83.91 3.64 2.95 3.64zm5.25 1.57h-2.23V13.5h-.04c-.62 1.21-1.95 1.73-3.3 1.73-3.35 0-4.97-2.5-4.97-5.68 0-3.85 2.28-5.54 4.6-5.54 1.35 0 2.83.5 3.55 1.67h.04V.25h2.35zM102.73 8.68c-.09-1.48-1.1-2.82-2.68-2.82-1.63 0-2.74 1.24-2.8 2.82zm-5.48 1.55c0 1.66.9 3.15 2.86 3.15 1.36 0 2.18-.6 2.6-1.77h2.22c-.52 2.32-2.5 3.62-4.82 3.62-3.33 0-5.2-2.33-5.2-5.6C94.9 6.6 96.87 4 100.04 4c3.36 0 5.41 3.03 5.02 6.22zM111.24 5.86c-1.97 0-2.98 1.5-2.98 3.77 0 2.14 1.09 3.75 2.98 3.75 2.14 0 2.95-1.9 2.95-3.75 0-1.93-1.01-3.77-2.95-3.77zM106 4.3h2.22v1.44h.04c.66-1.21 1.94-1.73 3.3-1.73 3.35 0 4.97 2.55 4.97 5.66 0 2.86-1.43 5.56-4.58 5.56-1.36 0-2.83-.5-3.56-1.67h-.05v5.3H106zM124.89 8.68c-.08-1.48-1.1-2.82-2.68-2.82-1.62 0-2.73 1.24-2.8 2.82zm-5.48 1.55c0 1.66.91 3.15 2.86 3.15 1.36 0 2.19-.6 2.6-1.77h2.22c-.51 2.32-2.49 3.62-4.82 3.62-3.33 0-5.2-2.33-5.2-5.6 0-3.02 1.98-5.62 5.14-5.62 3.36 0 5.42 3.03 5.02 6.22zM128.1 4.3h2.22v1.56l.04.04a3.81 3.81 0 0 1 3.32-1.89c2.3 0 3.76 1.24 3.76 3.62v7.3h-2.35V8.26c-.04-1.67-.7-2.39-2.07-2.39-1.57 0-2.58 1.24-2.58 2.8v6.28h-2.34zM143.76 13.37c2.1 0 2.98-1.9 2.98-3.76 0-2.35-1.13-3.75-2.94-3.75-2.2 0-2.98 1.96-2.98 3.87 0 1.83.9 3.64 2.94 3.64zm5.25 1.57h-2.22V13.5h-.05c-.61 1.21-1.95 1.73-3.29 1.73-3.35 0-4.98-2.5-4.98-5.68 0-3.85 2.29-5.54 4.61-5.54 1.34 0 2.82.5 3.54 1.67h.04V.25h2.35zM157.94 8.68c-.08-1.48-1.1-2.82-2.68-2.82-1.62 0-2.73 1.24-2.8 2.82zm-5.48 1.55c0 1.66.9 3.15 2.86 3.15 1.36 0 2.19-.6 2.6-1.77h2.22c-.51 2.32-2.49 3.62-4.82 3.62-3.33 0-5.2-2.33-5.2-5.6 0-3.02 1.98-5.62 5.14-5.62 3.36 0 5.41 3.03 5.02 6.22zM161.15 4.3h2.22v1.56l.04.04a3.81 3.81 0 0 1 3.31-1.89c2.31 0 3.77 1.24 3.77 3.62v7.3h-2.34V8.26c-.04-1.67-.7-2.39-2.08-2.39-1.57 0-2.58 1.24-2.58 2.8v6.28h-2.34zM170.96 4.3h1.77V1.1h2.35v3.2h2.12v1.75h-2.12v5.68c0 .97.08 1.46 1.13 1.46.33 0 .66 0 .99-.08v1.8c-.51.05-1 .13-1.52.13-2.45 0-2.9-.94-2.95-2.72V6.05h-1.77zM74.29 24.05c2.14 0 3.74-1 3.74-3.38 0-2.22-1.77-3.06-3.74-3.06h-5.23v6.44zm-6.14-7.22h6.14c2.57 0 4.65.94 4.65 3.78 0 1.98-1.2 3.44-3.15 3.77v.04c2.18.25 2.72 1.63 2.86 3.15.14 1.52-.1 3.17.5 3.95h-1.01c-.56-1-.23-2.7-.4-4.12-.18-1.42-.88-2.57-3.45-2.57h-5.23v6.7h-.9zM88.12 25.65c-.04-2.22-1.44-4.27-3.87-4.27-2.35 0-3.72 2.17-3.9 4.27zm-7.76.68c-.04 2.5 1.28 4.76 3.89 4.76 2 0 3.42-1.2 3.78-3.15h.79c-.41 2.47-2.06 3.83-4.57 3.83-3.09 0-4.71-2.43-4.67-5.36-.04-2.9 1.48-5.71 4.67-5.71 3.31 0 4.8 2.6 4.65 5.63zM90.17 28c.13 1.96 1.59 3.09 3.5 3.09 1.38 0 3.36-.42 3.36-2.25 0-1.79-1.82-2.05-3.63-2.43-1.83-.36-3.64-.84-3.64-3 0-2.1 2.04-2.71 3.83-2.71 2.24 0 3.9.96 3.9 3.37h-.77c-.02-1.91-1.36-2.7-3.13-2.7-1.44 0-3.05.54-3.05 2.04 0 1.69 1.81 1.96 3.52 2.33 2.1.39 3.75.88 3.75 3.1 0 2.29-2.29 2.93-4.14 2.93-2.4 0-4.22-1.3-4.28-3.77zM106.84 25.65c-.04-2.22-1.44-4.27-3.87-4.27-2.34 0-3.72 2.17-3.89 4.27zm-7.76.68c-.04 2.5 1.28 4.76 3.9 4.76 1.99 0 3.4-1.2 3.78-3.15h.78c-.41 2.47-2.06 3.83-4.57 3.83-3.08 0-4.7-2.43-4.67-5.36-.04-2.9 1.48-5.71 4.67-5.71 3.32 0 4.8 2.6 4.65 5.63zM109.31 23.29h.06c.41-1.38 2.14-2.5 4.06-2.41v.78c-.83-.1-1.98.1-2.93 1.03-.78.8-1.1 1.46-1.19 3.05v5.78h-.78V20.94h.78z"/><path d="M117.72 31.52h-.96l-4.26-10.58h.9l3.83 9.67h.04l3.58-9.67h.86zM129.97 25.65c-.04-2.22-1.44-4.27-3.87-4.27-2.35 0-3.73 2.17-3.9 4.27zm-7.76.68c-.04 2.5 1.28 4.76 3.89 4.76 2 0 3.41-1.2 3.78-3.15h.79c-.41 2.47-2.06 3.83-4.57 3.83-3.09 0-4.71-2.43-4.67-5.36-.04-2.9 1.48-5.71 4.67-5.71 3.3 0 4.8 2.6 4.65 5.63z"/></g></svg>
